<mxfile host="app.diagrams.net" modified="2023-11-25T09:28:27.991Z" agent="Mozilla/5.0 (Windows NT 10.0; Win64; x64) AppleWebKit/537.36 (KHTML, like Gecko) Chrome/119.0.0.0 Safari/537.36" etag="vcfdhYCSIVyZ_R6co-PH" version="22.1.4" type="device" pages="2">
  <diagram name="Use Case Add Windows Discount " id="3bZ-lfRYdqMByuNftqD3">
    <mxGraphModel dx="866" dy="458" grid="1" gridSize="10" guides="1" tooltips="1" connect="1" arrows="1" fold="1" page="1" pageScale="1" pageWidth="1100" pageHeight="850" math="0" shadow="0">
      <root>
        <mxCell id="0" />
        <mxCell id="1" parent="0" />
        <mxCell id="Xliga2pVMt-d-TgOvWY4-1" value="" style="rounded=0;whiteSpace=wrap;html=1;shadow=1;fillColor=none;" vertex="1" parent="1">
          <mxGeometry x="200" y="40" width="480" height="440" as="geometry" />
        </mxCell>
        <mxCell id="Xliga2pVMt-d-TgOvWY4-25" style="edgeStyle=orthogonalEdgeStyle;rounded=0;orthogonalLoop=1;jettySize=auto;html=1;entryX=0;entryY=0.5;entryDx=0;entryDy=0;" edge="1" parent="1" source="Xliga2pVMt-d-TgOvWY4-19" target="Xliga2pVMt-d-TgOvWY4-24">
          <mxGeometry relative="1" as="geometry" />
        </mxCell>
        <mxCell id="Xliga2pVMt-d-TgOvWY4-19" value="Admin/ Owner" style="shape=umlActor;verticalLabelPosition=bottom;verticalAlign=top;html=1;outlineConnect=0;" vertex="1" parent="1">
          <mxGeometry x="80" y="230" width="30" height="60" as="geometry" />
        </mxCell>
        <mxCell id="Xliga2pVMt-d-TgOvWY4-24" value="Add Window Discount" style="ellipse;whiteSpace=wrap;html=1;" vertex="1" parent="1">
          <mxGeometry x="250" y="225" width="140" height="70" as="geometry" />
        </mxCell>
        <mxCell id="Xliga2pVMt-d-TgOvWY4-26" value="System Validation System" style="ellipse;whiteSpace=wrap;html=1;" vertex="1" parent="1">
          <mxGeometry x="420" y="80" width="140" height="70" as="geometry" />
        </mxCell>
        <mxCell id="Xliga2pVMt-d-TgOvWY4-27" value="Sucessful Insertion Message" style="ellipse;whiteSpace=wrap;html=1;" vertex="1" parent="1">
          <mxGeometry x="250" y="355" width="140" height="70" as="geometry" />
        </mxCell>
        <mxCell id="Xliga2pVMt-d-TgOvWY4-28" value="Error Insertion Message" style="ellipse;whiteSpace=wrap;html=1;" vertex="1" parent="1">
          <mxGeometry x="420" y="350" width="140" height="70" as="geometry" />
        </mxCell>
        <mxCell id="Xliga2pVMt-d-TgOvWY4-29" value="System Checking Inputs Filling" style="ellipse;whiteSpace=wrap;html=1;" vertex="1" parent="1">
          <mxGeometry x="250" y="80" width="140" height="70" as="geometry" />
        </mxCell>
        <mxCell id="Xliga2pVMt-d-TgOvWY4-31" value="&amp;lt;&amp;lt;include&amp;gt;&amp;gt;" style="endArrow=open;endSize=12;dashed=1;html=1;rounded=0;entryX=0.2;entryY=0.25;entryDx=0;entryDy=0;entryPerimeter=0;" edge="1" parent="1" target="Xliga2pVMt-d-TgOvWY4-1">
          <mxGeometry width="160" relative="1" as="geometry">
            <mxPoint x="320" y="220" as="sourcePoint" />
            <mxPoint x="480" y="220" as="targetPoint" />
          </mxGeometry>
        </mxCell>
        <mxCell id="Xliga2pVMt-d-TgOvWY4-32" value="&amp;lt;&amp;lt;extend&amp;gt;&amp;gt;" style="endArrow=open;endSize=12;dashed=1;html=1;rounded=0;exitX=0.5;exitY=1;exitDx=0;exitDy=0;" edge="1" parent="1" source="Xliga2pVMt-d-TgOvWY4-26" target="Xliga2pVMt-d-TgOvWY4-24">
          <mxGeometry width="160" relative="1" as="geometry">
            <mxPoint x="330" y="230" as="sourcePoint" />
            <mxPoint x="330" y="160" as="targetPoint" />
          </mxGeometry>
        </mxCell>
        <mxCell id="Xliga2pVMt-d-TgOvWY4-34" value="&amp;lt;&amp;lt;extend&amp;gt;&amp;gt;" style="endArrow=open;endSize=12;dashed=1;html=1;rounded=0;exitX=0.5;exitY=0;exitDx=0;exitDy=0;entryX=0.5;entryY=1;entryDx=0;entryDy=0;" edge="1" parent="1" source="Xliga2pVMt-d-TgOvWY4-27" target="Xliga2pVMt-d-TgOvWY4-24">
          <mxGeometry width="160" relative="1" as="geometry">
            <mxPoint x="500" y="160" as="sourcePoint" />
            <mxPoint x="373" y="242" as="targetPoint" />
          </mxGeometry>
        </mxCell>
        <mxCell id="Xliga2pVMt-d-TgOvWY4-35" value="&amp;lt;&amp;lt;extend&amp;gt;&amp;gt;" style="endArrow=open;endSize=12;dashed=1;html=1;rounded=0;exitX=0.5;exitY=0;exitDx=0;exitDy=0;entryX=0.75;entryY=0.929;entryDx=0;entryDy=0;entryPerimeter=0;" edge="1" parent="1" source="Xliga2pVMt-d-TgOvWY4-28" target="Xliga2pVMt-d-TgOvWY4-24">
          <mxGeometry width="160" relative="1" as="geometry">
            <mxPoint x="330" y="365" as="sourcePoint" />
            <mxPoint x="330" y="305" as="targetPoint" />
          </mxGeometry>
        </mxCell>
        <mxCell id="Xliga2pVMt-d-TgOvWY4-36" value="Insertion Function" style="ellipse;whiteSpace=wrap;html=1;" vertex="1" parent="1">
          <mxGeometry x="500" y="225" width="140" height="70" as="geometry" />
        </mxCell>
        <mxCell id="Xliga2pVMt-d-TgOvWY4-37" value="&amp;lt;&amp;lt;extend&amp;gt;&amp;gt;" style="endArrow=open;endSize=12;dashed=1;html=1;rounded=0;exitX=0;exitY=0.5;exitDx=0;exitDy=0;entryX=1;entryY=0.5;entryDx=0;entryDy=0;" edge="1" parent="1" source="Xliga2pVMt-d-TgOvWY4-36" target="Xliga2pVMt-d-TgOvWY4-24">
          <mxGeometry width="160" relative="1" as="geometry">
            <mxPoint x="500" y="160" as="sourcePoint" />
            <mxPoint x="373" y="242" as="targetPoint" />
          </mxGeometry>
        </mxCell>
      </root>
    </mxGraphModel>
  </diagram>
  <diagram name="Use Case Add Aluminum Windows Discount" id="P0QejvJtlUMFexCdiI14">
    <mxGraphModel dx="866" dy="458" grid="1" gridSize="10" guides="1" tooltips="1" connect="1" arrows="1" fold="1" page="1" pageScale="1" pageWidth="1100" pageHeight="850" math="0" shadow="0">
      <root>
        <mxCell id="KfzElQNhcMUMrKP527wt-0" />
        <mxCell id="KfzElQNhcMUMrKP527wt-1" parent="KfzElQNhcMUMrKP527wt-0" />
        <mxCell id="KfzElQNhcMUMrKP527wt-2" value="" style="rounded=0;whiteSpace=wrap;html=1;shadow=1;fillColor=none;" vertex="1" parent="KfzElQNhcMUMrKP527wt-1">
          <mxGeometry x="200" y="40" width="480" height="440" as="geometry" />
        </mxCell>
        <mxCell id="KfzElQNhcMUMrKP527wt-3" style="edgeStyle=orthogonalEdgeStyle;rounded=0;orthogonalLoop=1;jettySize=auto;html=1;entryX=0;entryY=0.5;entryDx=0;entryDy=0;" edge="1" parent="KfzElQNhcMUMrKP527wt-1" source="KfzElQNhcMUMrKP527wt-4" target="KfzElQNhcMUMrKP527wt-5">
          <mxGeometry relative="1" as="geometry" />
        </mxCell>
        <mxCell id="KfzElQNhcMUMrKP527wt-4" value="Admin/ Owner" style="shape=umlActor;verticalLabelPosition=bottom;verticalAlign=top;html=1;outlineConnect=0;" vertex="1" parent="KfzElQNhcMUMrKP527wt-1">
          <mxGeometry x="80" y="230" width="30" height="60" as="geometry" />
        </mxCell>
        <mxCell id="KfzElQNhcMUMrKP527wt-5" value="Add Aluminum Windows Discount" style="ellipse;whiteSpace=wrap;html=1;" vertex="1" parent="KfzElQNhcMUMrKP527wt-1">
          <mxGeometry x="250" y="225" width="140" height="70" as="geometry" />
        </mxCell>
        <mxCell id="KfzElQNhcMUMrKP527wt-6" value="System Validation System" style="ellipse;whiteSpace=wrap;html=1;" vertex="1" parent="KfzElQNhcMUMrKP527wt-1">
          <mxGeometry x="500" y="140" width="140" height="70" as="geometry" />
        </mxCell>
        <mxCell id="KfzElQNhcMUMrKP527wt-7" value="Sucessful Insertion Message" style="ellipse;whiteSpace=wrap;html=1;" vertex="1" parent="KfzElQNhcMUMrKP527wt-1">
          <mxGeometry x="250" y="355" width="140" height="70" as="geometry" />
        </mxCell>
        <mxCell id="KfzElQNhcMUMrKP527wt-8" value="Error Insertion Message" style="ellipse;whiteSpace=wrap;html=1;" vertex="1" parent="KfzElQNhcMUMrKP527wt-1">
          <mxGeometry x="420" y="350" width="140" height="70" as="geometry" />
        </mxCell>
        <mxCell id="KfzElQNhcMUMrKP527wt-9" value="System Checking Inputs Filling" style="ellipse;whiteSpace=wrap;html=1;" vertex="1" parent="KfzElQNhcMUMrKP527wt-1">
          <mxGeometry x="230" y="50" width="140" height="70" as="geometry" />
        </mxCell>
        <mxCell id="KfzElQNhcMUMrKP527wt-10" value="&amp;lt;&amp;lt;include&amp;gt;&amp;gt;" style="endArrow=open;endSize=12;dashed=1;html=1;rounded=0;entryX=0.5;entryY=1;entryDx=0;entryDy=0;" edge="1" parent="KfzElQNhcMUMrKP527wt-1" target="KfzElQNhcMUMrKP527wt-9">
          <mxGeometry width="160" relative="1" as="geometry">
            <mxPoint x="320" y="220" as="sourcePoint" />
            <mxPoint x="480" y="220" as="targetPoint" />
          </mxGeometry>
        </mxCell>
        <mxCell id="KfzElQNhcMUMrKP527wt-11" value="&amp;lt;&amp;lt;extend&amp;gt;&amp;gt;" style="endArrow=open;endSize=12;dashed=1;html=1;rounded=0;exitX=0.5;exitY=1;exitDx=0;exitDy=0;" edge="1" parent="KfzElQNhcMUMrKP527wt-1" source="KfzElQNhcMUMrKP527wt-6" target="KfzElQNhcMUMrKP527wt-5">
          <mxGeometry width="160" relative="1" as="geometry">
            <mxPoint x="330" y="230" as="sourcePoint" />
            <mxPoint x="330" y="160" as="targetPoint" />
          </mxGeometry>
        </mxCell>
        <mxCell id="KfzElQNhcMUMrKP527wt-12" value="&amp;lt;&amp;lt;extend&amp;gt;&amp;gt;" style="endArrow=open;endSize=12;dashed=1;html=1;rounded=0;exitX=0.5;exitY=0;exitDx=0;exitDy=0;entryX=0.5;entryY=1;entryDx=0;entryDy=0;" edge="1" parent="KfzElQNhcMUMrKP527wt-1" source="KfzElQNhcMUMrKP527wt-7" target="KfzElQNhcMUMrKP527wt-5">
          <mxGeometry width="160" relative="1" as="geometry">
            <mxPoint x="500" y="160" as="sourcePoint" />
            <mxPoint x="373" y="242" as="targetPoint" />
          </mxGeometry>
        </mxCell>
        <mxCell id="KfzElQNhcMUMrKP527wt-13" value="&amp;lt;&amp;lt;extend&amp;gt;&amp;gt;" style="endArrow=open;endSize=12;dashed=1;html=1;rounded=0;exitX=0.5;exitY=0;exitDx=0;exitDy=0;entryX=0.75;entryY=0.929;entryDx=0;entryDy=0;entryPerimeter=0;" edge="1" parent="KfzElQNhcMUMrKP527wt-1" source="KfzElQNhcMUMrKP527wt-8" target="KfzElQNhcMUMrKP527wt-5">
          <mxGeometry width="160" relative="1" as="geometry">
            <mxPoint x="330" y="365" as="sourcePoint" />
            <mxPoint x="330" y="305" as="targetPoint" />
          </mxGeometry>
        </mxCell>
        <mxCell id="KfzElQNhcMUMrKP527wt-14" value="Insertion Function" style="ellipse;whiteSpace=wrap;html=1;" vertex="1" parent="KfzElQNhcMUMrKP527wt-1">
          <mxGeometry x="500" y="260" width="140" height="70" as="geometry" />
        </mxCell>
        <mxCell id="KfzElQNhcMUMrKP527wt-15" value="&amp;lt;&amp;lt;extend&amp;gt;&amp;gt;" style="endArrow=open;endSize=12;dashed=1;html=1;rounded=0;exitX=0;exitY=0.5;exitDx=0;exitDy=0;entryX=1;entryY=0.5;entryDx=0;entryDy=0;" edge="1" parent="KfzElQNhcMUMrKP527wt-1" source="KfzElQNhcMUMrKP527wt-14" target="KfzElQNhcMUMrKP527wt-5">
          <mxGeometry width="160" relative="1" as="geometry">
            <mxPoint x="500" y="160" as="sourcePoint" />
            <mxPoint x="373" y="242" as="targetPoint" />
          </mxGeometry>
        </mxCell>
        <mxCell id="ttdXqUk5efgeFxSQ7LW1-0" value="Discount Validtaion" style="ellipse;whiteSpace=wrap;html=1;" vertex="1" parent="KfzElQNhcMUMrKP527wt-1">
          <mxGeometry x="399" y="50" width="140" height="70" as="geometry" />
        </mxCell>
        <mxCell id="ttdXqUk5efgeFxSQ7LW1-1" value="&amp;lt;&amp;lt;include&amp;gt;&amp;gt;" style="endArrow=open;endSize=12;dashed=1;html=1;rounded=0;exitX=0.5;exitY=1;exitDx=0;exitDy=0;entryX=0.736;entryY=0.1;entryDx=0;entryDy=0;entryPerimeter=0;" edge="1" parent="KfzElQNhcMUMrKP527wt-1" source="ttdXqUk5efgeFxSQ7LW1-0" target="KfzElQNhcMUMrKP527wt-5">
          <mxGeometry width="160" relative="1" as="geometry">
            <mxPoint x="229" y="160" as="sourcePoint" />
            <mxPoint x="280" y="173" as="targetPoint" />
          </mxGeometry>
        </mxCell>
      </root>
    </mxGraphModel>
  </diagram>
</mxfile>
